<?xml version="1.0" encoding="UTF-8"?>
<svg version="1.1" viewBox="0 0 2048 1133" width="271" height="150" xmlns="http://www.w3.org/2000/svg">
<path transform="translate(328,233)" d="m0 0 34 1 33 3 35 6 32 8 36 12 30 13 26 13 22 13 22 15 21 16 11 9 12 11 7 6 26 6 16 5 16 7 15 8 17 12 11 9 11 11 11 14 10 15 10 19 7 18 6 24 2 14v31l-2 15-7 27-4 11-2 1-12-18-15-15-14-10-17-9-19-7-18-4-21-3-13-1h-13l-30 3-28 5-30 8-26 9-30 13-27 14-23 14-18 13-14 11-14 12-18 18-11 14-8 11-11 19-9 19-9 25-5 18-6 32-1 11v41l2 18 7 33 8 26 10 23 8 15 10 15-1 3-11-7-16-12-14-10-17-13-11-9-14-12-10-9-8-7-15-14-11-11-7-8-24-28-13-17-13-18-11-17-11-18-10-18-9-17-1-3v-7l14-25 12-20 12-18 12-17 11-14 9-11 12-14 9-9 7-8 14-14 8-7 10-9 10-8 12-10 18-13 24-16 15-9 16-9 19-10 29-13 27-10 28-9 27-7 31-6 15-1-24-3h-35l-48 3-42 6-37 8-33 9-35 12-34 14-29 14-23 12-20 12-20 13-20 14-17 13-10 8-13 11-5 3-2-6-5-44-2-37v-201l5-5 23-12 17-9 28-12 36-12 28-7 32-6 26-3z" fill="#161B43"/>
<path transform="translate(503,60)" d="m0 0h81l49 3 56 6 49 7 50 9 49 11 39 10 47 14 38 13 20 7 8 4 1 1v377l-2 36-4 30-5 28-9 35-12 36-10 25-12 26-13 25-13 22-16 24-11 16-10 13-13 16-8 10-9 10-11 12-28 28-8 7-12 11-11 9-15 12-13 10-18 13-15 10-17 11-22 13-18 10-25 13-33 15-27 11-24 9h-6l-13-6-18-8-16-9-12-8-12-9-11-9-13-12-11-12-13-17-11-17-11-21-8-21-6-19-6-30-1-10v-34l3-22 6-26 8-23 11-24 9-16 14-21 12-14 11-12 8-8 8-7 7-7 5-2-5 9-10 13-10 18-7 18-7 24-3 16-1 8v37l3 20 7 26 9 21 9 17 8 12 9 11 9 10 10 10 13 10 18 11 16 8 16 6 19 5 13 2h32l18-3 17-5 21-9 18-11 14-10 13-10 13-11 11-9 12-11 13-12 16-16 7-8 11-12 9-11 13-16 9-12 13-19 12-19 14-25 8-16 9-19 11-28 10-31 7-28 6-34 2-18 1-26v-346l-13-5-48-15-44-12-33-8-32-7-45-8-50-7-56-5-36-2h-75l-49 3-41 4-44 6-45 8-42 9-47 12-31 9-29 9-21 7-4 2v34l-12 5-28 13-13 6-1-3v-91l4-3 54-19 46-14 50-13 44-10 42-8 52-8 63-7 28-2z" fill="#A7171F"/>
<path transform="translate(1506,364)" d="m0 0h79l8 1-4 11-3 13-1 1-24 1 1 15 3 88 1 18 6-11 26-53 16-34 14-29 10-19 1-1 28-1 3 4 5 64 4 51v27l4-4 8-18 19-43 20-46 2-8h-18l-2-1 1-8 4-16 3-2h169l1 2-3 19-3 4-3 1-20 1-1 11-10 51-1 3 8-4 24-24 7-8 25-25 1-4h-7l-5-2-1-2 5-21 3-2h78l1 1-1 9-3 13-1 2-3 1-17 1-5 3-17 16-20 20-8 7-8 8-8 7-9 9 1 5 15 24 12 20 15 24 7 10 7 1h11l1 1v8l-3 12-2 4-8 2h-39l-4-2-13-22-14-25-12-21-10-17-5-6-2-1-2 12-11 49-1 4 1 1 17 1 3 1-1 10-2 12-3 3-8 1h-75l-6-1 1-8 3-15 2-3h21l2-2 12-57 12-60 8-34 1-2-50 1-2 5-11 24-9 20-16 36-13 28-15 33-15 32-4 3h-38l-2-2-5-65-5-68-19 39-8 18-8 16-14 30-15 31-2 1h-38l-3-3-1-4-8-146-1-29-22 1-3-2 4-22 1-2zm288 12-1 5 2 4 1-9z" fill="#0126F2"/>
<path transform="translate(1105,364)" d="m0 0h88l-1 8-4 16-2 2-20 1-2 5-6 33-5 24-1 2 82-1 2-12 10-50 1-2-20 1-2-1 1-10 3-13 2-3h90l-1 8-5 17-1 1-21 1-2 1-9 43-18 89-5 21 44-1 4-4 16-28 13-22 17-28 16-27 17-29 16-27 6-10 4-4 14-1h23l2 5 16 111 9 61 1 3 17 1 4 1-1 8-2 13-3 4-13 1h-71l-6-1 3-12 1-9 3-4 21-1-4-34-1-7-62 1-10 19-10 18-1 3h16l2 4-3 20-2 2-6 1h-150l-12-1 1-7 3-16 3-3 17 1 4-1 5-26 8-36 1-2h-82l-5 25-8 39h20l1 1-1 10-3 13-2 2-7 1h-80l-3-1 4-21 3-5 18 1 5-1 2-12 8-38 15-74 7-31-23 1-1-1 1-11 3-12zm308 56-4 5-13 23-8 14-8 13v2h41l-1-16-5-37z" fill="#040405"/>
<path transform="translate(1643,368)" d="m0 0h18l3 4 2 15 4 55 5 54v30l-1 13 4-4 11-25 15-33 13-31 10-23 10-25 4-12h-14l-7-2v-12l1-3h71l-1 13-1 4-23 2-5 8-11 25-9 20-7 16-7 15-8 18-4 8-13 28-9 19-9 20-2 2-4 1h-20l-8-2-1-1-1-7-5-75-5-60-1-8h-2l-2 9-4 11-13 27-11 23-17 36-12 25-8 15-7 6-13 1-13-1-3-1-2-15-6-122-2-35-1-7-19-1-3-2 1-15h82l2 1v8l-3 5-5 3-6 1h-15l1 54 2 37v41l-1 20 6-9 15-31 10-19 17-35 13-28 18-37 5-11z" fill="#040406"/>
<path transform="translate(1243,368)" d="m0 0h37l34 1-1 13-1 5h-26l-5 26-13 65-10 48-5 19v4l17 1 6 1-2 12-1 3-2 1h-69l-7-2 1-11 4-3 3-1 14-1 3-1 3-12 8-40 4-17 1-2h-43l-51-1-2 12-11 55v6l18 1 1 1v13l-3 3-22 1h-26l-26-1-3-2-1-8 3-5 6-2 17-1 3-8 11-53 12-60 7-38v-3l-22-1 1-17h81l-2 18-24 1-5 30-7 34-2 7h92l2-3 10-54 2-15-19-1-1-1v-16z" fill="#040305"/>
<path transform="translate(1801,369)" d="m0 0h81v14l-3 3-21 1-2 10-10 49-2 14 12-1 8-7 34-34 7-8 15-16 6-7-16-1-1-1v-15l2-1h69l1 2v10l-4 5h-17l-6 3h-2l-2 4-19 19-8 7-4 5-8 7-12 11-10 9-6 8v8l5 10 24 38 9 15 10 14 5 5 8 3 6 2v8l-2 4-4 2h-29l-8-1-6-7-18-34-12-21-15-26-4-3-11-1-3 10-8 40-5 20v5h13l7 3 1 8-3 5-3 1h-69l-5-2-1-1v-9l4-4 2-1 18-1 3-4 6-28 9-45 10-47 7-34v-4h-16l-7-1-1-3z" fill="#040305"/>
<path transform="translate(1105,364)" d="m0 0h88l-1 8-4 16-2 2-20 1-2 5-6 33-5 24-1 2 82-1 2-12 10-50 1-2-20 1-2-1 1-10 3-13 2-3h90l-1 8-5 17-1 1-21 1-2 1-9 43-18 89-5 21 44-1 4-4 16-28 13-22 17-28 16-27 17-29 16-27 6-10 4-4 14-1h23l2 5 16 111 9 61 1 3 17 1 4 1-1 8-2 13-3 4-13 1h-71l-6-1 3-12 1-9 3-4 21-1-4-34-1-7-62 1-10 19-10 18-1 3h16l2 4-1 1-12 1h-11l-2-1 1-5 13-26 9-15 5-5h50l18 1 2 4 3 29 1 6v9l-3 2-20 1-1 2-1 12 3 1 21 1h53l1-6v-9l-3-1-13-1-2-2-4-25-18-121-4-27-1-4-6-1h-23l-9 15-11 20-12 20-19 32-14 24-33 55-8 11-5 4-8 1-5-1-5 5-4 10h71v-13l6-2-1 13-2 6-7 2h-150l-12-1 1-7 3-16 3-3 17 1 4-1 5-26 8-36 1-2h-82l-5 25-8 39h20l1 1-1 10-3 13-2 2-7 1h-80l-3-1 4-21 3-5 18 1 5-1 2-12 8-38 15-74 7-31-23 1-1-1 1-11 3-12zm138 4-11 1v16l1 1 19 1-4 27-8 42-2 3h-92l5-21 7-38 2-12 24-1 2-18h-81l-1 17 22 1-2 14-9 48-17 83-4 16-1 1-17 1-6 2-3 5 1 8 3 2 26 1h26l22-1 3-3v-13l-1-1-18-1 1-11 12-59v-3l51 1h43l-4 15-8 39-3 15-1 2-3 1-14 1-6 3-2 6v6l7 2h69l2-1 3-12v-3l-6-1-17-1 1-8 6-24 12-59 13-66 1-5h26l2-13v-5l-34-1z" fill="#032AF5"/>
<path transform="translate(1506,364)" d="m0 0h79l8 1-4 11-3 13-1 1-24 1 1 15 3 88 1 18 6-11 26-53 16-34 14-29 10-19 1-1 28-1 3 4 5 64 4 51v27l4-4 8-18 6-7 3-1 2 1-1 5-16 35-7 16-4 2v-43l-7-78-3-41-2-7-1-1h-18l-7 15-17 35-13 28-11 22-11 23-12 23-8 17-6 8h-1l1-21v-41l-2-37v-54l21-2 5-3 2-4 1-8-84-1v15l2 1 19 1 1 1 1 7 5 94 3 63 1 15 23 1 8-2 6-7 8-16 12-25 4-6 1 3-3 7h-2l-3 12-2 4-3 3-3 13-9 18-2 1h-38l-3-3-1-4-8-146-1-29-22 1-3-2 4-22 1-2z" fill="#0328F2"/>
<path transform="translate(1105,364)" d="m0 0h88l-1 8-4 16-2 2-20 1-2 5-6 33-5 24-1 2 82-1 2-12 10-50 1-2-20 1-2-1 1-10 3-13 2-3h90l-1 8-5 17-1 1-21 1-2 1-9 43-18 89-5 21h36v1l-18 1-4 1h-12l-1 1h-8l1-8 6-24 12-59 13-66 2-5h26l1-13 1-5h-82l1 16 19 1 1 3-7 41-5 26-3 4h-39l-53-1 1-7 8-40 4-22 3-3h22v-9l2-9h-81v11l-1 6h22l1 4-11 59-17 83-4 16-2 2h-8l-1-4 5-1 2-12 8-38 15-74 7-31-23 1-1-1 1-11 3-12z" fill="#0227F2"/>
<path transform="translate(1799,371)" d="m0 0h1l1 14 7 1h16l1 5-18 86-13 65-3 6-2 2-23 1-3 1-2 5-1-4 2-7 1-1h21l2-2 12-57 12-60 8-34 1-2-50 1-2 5-11 24-9 20-16 36-13 28-15 33-15 32-4 3h-38l-2-2-5-65-5-68-19 39-8 18-8 16-14 30-4 9h-1l1-9 2-3h2l3-10 2-6 2-1 2-9 3-9 17-36 8-16 9-19 5-16h2l2 8 6 74 4 61 1 7 8 2h20l5-2 10-22 11-23 11-24 13-28 5-11 8-18 18-40 5-10 2-2h27l2-11-2-1 3-1z" fill="#0428F1"/>
<path transform="translate(1142,476)" d="m0 0h51l43 1-3 15-8 39-3 15-2 3-3 1-14 1-6 3-1 11 6 1h71l2-12 1-3-23-1v-1l7-1 1-1h14l2-1 31-2 3-1-2 4-5 4-8 1-5-1-5 5-4 10h71v-13l6-2-1 13-2 6-7 2h-150l-12-1 1-7 3-16 3-3 17 1 4-1 5-26 8-36 1-2h-82l-5 25-8 39h20l1 1-1 10-3 13-2 2-7 1h-80l-3-1 4-21 3-5 16 1 3 3v1l-14 2-3 5 1 8 2 1 26 1h26l24-1v-15l-18-1-1-1 1-11 12-59z" fill="#001BDB"/>
<path transform="translate(1841,474)" d="m0 0 11 1 5 4 16 28 14 25 15 28 5 7-4-2-10-8-15-27-12-21-14-24-5-6-2-1-2 12-11 49-1 4 1 1 17 1 3 1-1 10-2 12-3 3-8 1h-75l-6-1 1-8 3-7 2-4 3-2h5l-5 5v9l5 2h69l3-1 2-4-1-8-6-2-13-1-1-5 8-34 6-31z" fill="#001AD9"/>
<path transform="translate(1496,381)" d="m0 0 4 1 3 3 19 1 1 1 1 7 5 94 3 63 1 15 23 1 8-2 6-7 8-16 12-25 4-6 1 3-3 7h-2l-3 12-2 4-3 3-3 13-9 18-2 1h-38l-3-3-1-4-8-146-1-29-22 1-3-2 2-7z" fill="#011DDC"/>
<path transform="translate(1720,364)" d="m0 0h169l1 2-2 3-167-1v16l20 2-2 9-9 24-7 15-17 40-3 7-6 1-4 4 3-9 17-39 11-25 8-20v-2h-18l-2-1 1-8 4-16z" fill="#0227F3"/>
<path transform="translate(1426,364)" d="m0 0h23l2 5 5 34v5l-2-2-2-6-2-13-3-11-2-4-7-2h-23l-9 15-11 20-12 20-19 32-14 24-33 55-5 7-4 2-3-2 10-17 15-26 9-15 17-28 13-22 17-29 16-27 6-10 4-4z" fill="#0228F3"/>
<path transform="translate(1231,364)" d="m0 0h90l-1 8-5 17-1 1-21 1-2 1-9 43-18 89-5 21h36v1l-18 1-4 1h-12l-1 1h-8l1-8 6-24 12-59 13-66 2-5h26l1-13 1-5h-34l-51-1z" fill="#0428F2"/>
<path transform="translate(1636,415)" d="m0 0h2l2 8 6 74 4 61 1 7 8 2h20l6-2-1 3-2 1-23 1-2 1h-9l-3-3-2-8-9-123-19 39-8 18-8 16-14 30-4 9h-1l1-9 2-3h2l3-10 2-6 2-1 2-9 3-9 17-36 8-16 9-19z" fill="#001CDE"/>
<path transform="translate(1229,368)" d="m0 0h14v1h-11l1 16 19 1 1 3-7 41-5 26-3 4h-39l-53-1 1-7 8-40 4-22 3-3h22v-2h3l-2 5-19 1-2 5-6 33-5 24-1 2 82-1 2-12 10-50 1-2-20 1-2-1 1-10z" fill="#0126F2"/>
<path transform="translate(1661,364)" d="m0 0h6l3 4 5 64 4 51v27l4-4 8-18 6-7 3-1 2 1-1 5-16 35-7 16-4 2v-43l-7-78-3-41-2-7-1-1-13-1v-1l6-1v-1z" fill="#001BDB"/>
<path transform="translate(1892,449)" d="m0 0h7l-6 7-5 5 1 5 15 24 12 20 15 24 7 10 7 1h11l1 1v8l-3 12-2 4-8 2h-39l-4-2-6-10 1-2 9 8 10 1h29l4-2 1-3v-8l-11-3-6-4-10-14-11-18-25-40-4-8v-8l5-6z" fill="#0329F4"/>
<path transform="translate(1821,386)" d="m0 0 4 1-1 9-8 38-9 43-13 65-3 6-2 2-23 1-3 1-2 5-1-4 2-7 1-1h21l2-2 12-57 12-60 8-34v-3l-8-1v-1z" fill="#0227F1"/>
<path transform="translate(1145,484)" d="m0 0 1 4-12 57h20l1 1-1 10-3 13-2 2-7 1h-80l-3-1 4-21 3-5 16 1 3 3v1l-14 2-3 5 1 8 2 1 26 1h26l24-1v-15l-18-1-1-1 1-11 9-45 6-7z" fill="#0228F3"/>
<path transform="translate(1362,499)" d="m0 0h50l18 1 2 4 3 29 1 6v9l-3 2-20 1-1 2-1 9-3 1-3-1 1-12 3-4 21-1-4-34-1-7-62 1-10 19-10 18-1 3h16l2 4-1 1-12 1h-11l-2-1 1-5 13-26 9-15z" fill="#0025F0"/>
<path transform="translate(1417,396)" d="m0 0 2 4 4 36 4 37 1 10h-55l-1-2 14-26 13-22 10-18 4-8zm-4 24-4 5-13 23-8 14-8 13v2h41l-1-16-5-37z" fill="#0125F0"/>
<path transform="translate(1639,365)" d="m0 0h15l1 2-12 2-7 15-17 35-13 28-11 22-11 23-12 23h-2v-5l-2-1 8-16 20-41 19-40 12-25 10-20z" fill="#0127F3"/>
<path transform="translate(1910,368)" d="m0 0h76l1 1-1 10-3 10-3 1-17 1-5 3-17 16-20 20-8 7-8 8-5 4-8 1-4 3 2-4 13-12 14-13 12-12 8-7 18-18 5-2h17l3-4v-12l-71 1z" fill="#001BDD"/>
<path transform="translate(1721,368)" d="m0 0h167l1 3-2 14-3 4-3 1-20 1-1 11-9 46h-4l3-7h-2v-11l8-37 2-6 23-2 1-16h-81v14h-1l-1-11-2 3h-3v12h-14v-1h10l2-17h-71z" fill="#0328F2"/>
<path transform="translate(1720,364)" d="m0 0h169l1 2-2 3-167-1v4h-2v3l-4 2 1-9z" fill="#0128F5"/>
<path transform="translate(1841,474)" d="m0 0 11 1 5 4 16 28 14 25 15 28 5 7-4-2-10-8-15-27-12-21-14-24-5-6-2-1-1 4-4 1-2 8h-1l1-11z" fill="#0126F3"/>
<path transform="translate(1355,565)" d="m0 0 2 1-1 4-7 2h-150l3-3 11-1h59l14 3v-2l3-1h66z" fill="#0027F6"/>
<path transform="translate(1634,434)" d="m0 0h2v3h3l2 18 4 50 2 35-2 11v9h-2l-9-123z" fill="#032AF6"/>
<path transform="translate(1724,478)" d="m0 0 1 4-1 9-16 35-14 30-7 14-3 2h-38l-2-2v-7h1l2 6 1 1h9l2-1 23-1 2-1 3-9 7-15 11-23 11-24z" fill="#0328F1"/>
<path transform="translate(1506,364)" d="m0 0h79l8 1-2 4-1-3-5 2-1 1h-83v11l-2 2h-5l2-15 1-2z" fill="#0327F1"/>
<path transform="translate(1557,441)" d="m0 0h1l1 21 1 6h2v-9h1l1 11 2 42 1-2h3l1 8-10 19-4 3 1-21v-41l-1-14z" fill="#001CDD"/>
<path transform="translate(1444,371)" d="m0 0 3 3 3 8 2 9 2 12 3 7 1 10-1 3 1 13v10l2 13 3 5 1 6v14l3 23 5 19 2 16-2 6-2-4-21-142-4-27z" fill="#001AD9"/>
<path transform="translate(1457,420)" d="m0 0h1l11 72 7 49 1 3 17 1 4 1v5l-2-4h-6l-2 3h-15l-1-5 1-4-3-19-4-15-3-23v-15l-2-7-2-3-2-13v-12l-1-13z" fill="#062CF6"/>
<path transform="translate(1909,364)" d="m0 0h78l1 1v5l-2-1h-76l-1 1v17l-3 3-4-1-1-2 5-21z" fill="#0128F6"/>
<path transform="translate(1840,482)" d="m0 0h4l-3 17-10 44 1 1 17 1v1h-15v3l-9 1-1-5 8-34 4-20h2l1-8z" fill="#0428F1"/>
<path transform="translate(1229,368)" d="m0 0h14v1h-11l1 16 19 1 1 3-6 36h-1v-8l-3-1v-9l3-15 1-2-20 1-2-1 1-10z" fill="#031FDD"/>
<path transform="translate(1639,438)" d="m0 0h2l5 59 4 61 1 7 8 2h20l6-2-1 3-2 1-23 1-2 1h-9l-3-3-1-8v-10l2-11-4-62-3-34z" fill="#001AD9"/>
<path transform="translate(1721,368)" d="m0 0h167l1 3-2 10-2-1-2 5-3 2-22 2v-2l23-2 1-16h-81v14h-1l-1-11-2 3h-3v12h-14v-1h10l2-17h-71z" fill="#001AD9"/>
<path transform="translate(1226,492)" d="m0 0 5 1v8l-9 45-2 3h-7v-4h2l5-26z" fill="#0328F2"/>
<path transform="translate(1066,545)" d="m0 0 16 1 3 3v1l-14 2-3 5 1 8 2 1 26 1v1l-8 2v1h-30l4-21z" fill="#001BDB"/>
<path transform="translate(1194,545)" d="m0 0 19 1v3l4 1-14 1-6 3-1 11 16 2-3 2-9 2h-13l1-7 3-16z" fill="#021DDC"/>
<path transform="translate(1985,375)" d="m0 0 1 4-3 10-3 1-17 1-5 3-17 16-14 14v-3l-1-3 30-30 2-1h7l4 1h7l5-5z" fill="#0127F6"/>
<path transform="translate(1428,521)" d="m0 0 2 2v3l3 1 1 12h2v9l-3 2-20 1-1 2-1 9-3 1-3-1 1-12 3-4 21-1-2-19z" fill="#0025F1"/>
<path transform="translate(1877,516)" d="m0 0 4 5 15 28 8 14 3 4-4-2-10-8-15-27-1-6h2l-2-5z" fill="#001BDB"/>
<path transform="translate(1355,565)" d="m0 0 2 1-1 4-7 2h-64l1-3 3-1h66z" fill="#0329F6"/>
<path transform="translate(1150,567)" d="m0 0v3l-1 1-7 1h-80v-1l26-1 3-2h30l24 1z" fill="#072DF5"/>
<path transform="translate(1848,564)" d="m0 0 1 4-3 3-8 1h-75l-6-1v-2l8 1h14v-1l67-1z" fill="#052BF6"/>
<path transform="translate(1895,558)" d="m0 0 8 6 2 2 10 1v2l31-1 4-1 2-7 3 1-3 9-8 2h-39l-4-2-6-10z" fill="#0D31F5"/>
<path transform="translate(1698,543)" d="m0 0 1 3-11 23-4 3h-38l-2-2v-7h1l2 6 1 1h9l2-1 23-1 2-1 3-9 4-2 4-11z" fill="#1135F5"/>
<path transform="translate(1947,545)" d="m0 0h9l1 1v8l-2 7-3-1-1 7-5 2h-31v-1l29-1 4-2 1-3v-8l-11-3 3-1v-2l7 1 1-2h-2z" fill="#001AD5"/>
<path transform="translate(1910,368)" d="m0 0h76l1 1v5l-7 12-4 3h-7l-4-1h-7l-4 1 3-3 8-1h12l3-4v-12l-71 1z" fill="#001AD9"/>
<path transform="translate(1841,474)" d="m0 0 11 1 5 4 5 9-2 4h-4l-7-11-4-3-1 4-4 1-2 8h-1l1-11z" fill="#011BDA"/>
<path transform="translate(1412,500)" d="m0 0h18l2 4 3 29v6l-2-2-1-10-2-1-3-7-2-16h-8l-5-2z" fill="#021DDA"/>
<path transform="translate(1149,547)" d="m0 0 5 4-1 10-1 6-7 3-24-1 2-2 24-1v-15l-18-1v-1z" fill="#001CDF"/>
<path transform="translate(1405,562)" d="m0 0h5l1 3 3 1 21 1 51 1v1h-67l-4 2h-13z" fill="#011BDA"/>
<path transform="translate(1719,372)" d="m0 0h1l1 12 15 2-2 1-1 3-19 1-2-1 1-8 3-6 3-1z" fill="#001ADA"/>
<path transform="translate(1892,449)" d="m0 0h7l-6 7-5 5 1 5 6 9-1 2-6-4-4-5-1-2 1-10z" fill="#0127F4"/>
<path transform="translate(1883,458)" d="m0 0 1 2v6l4 6 8 5 4 10 2 12-4-5-9-14-6-10-1-3v-8z" fill="#001AD9"/>
<path transform="translate(1594,511)" d="m0 0 1 3-3 7h-2l-3 12-2 4-3 3-3 13-7 3 1-5 16-32z" fill="#001AD9"/>
<path transform="translate(1457,420)" d="m0 0h1l7 47-1 3-4-9-2-8-1-7v-12l-1-13z" fill="#062CF6"/>
<path transform="translate(1472,527)" d="m0 0 2 1 3 16 17 1 4 1v5l-2-4h-6l-2 3h-15l-1-5 1-4z" fill="#0C30F3"/>
<path transform="translate(1490,546)" d="m0 0 6 1 1 7-2 8-3 4-4 1 1-6v-9l-3-2z" fill="#021CDA"/>
<path transform="translate(1709,511)" d="m0 0 1 3-4 12-3 4-4 13-4 4-3 9-4 2 2-6 6-13z" fill="#001AD9"/>
<path transform="translate(1898,416)" d="m0 0v3l-37 37-1-2 2-5 6-3 4-5 3-5h2v-2h2v-2l9-6z" fill="#001AD9"/>
<path transform="translate(1527,566)" d="m0 0 8 2 23 1 9 2v1h-37l-3-3z" fill="#506BF8"/>
<path transform="translate(1668,374)" d="m0 0 3 4 3 40v8l-2-4-2-11-1-24z" fill="#072DF6"/>
<path transform="translate(1577,553)" d="m0 0 1 2-8 16-3 1-5-1 2-3h2l1-4 4-8z" fill="#0025F3"/>
<path transform="translate(1616,470)" d="m0 0 1 2-10 22-5 10-2-2 4-12 4-5 4-12 1-2z" fill="#193CF6"/>
<path transform="translate(1847,436)" d="m0 0h1v5h2l-1 5-1 2 2 1-1 5-4 2v3h11v1h-12v-8z" fill="#001ADA"/>
<path transform="translate(1595,514)" d="m0 0 1 3-14 29-2 3 1-9 2-3h2l3-10 2-6 2-1z" fill="#062CF6"/>
<path transform="translate(1799,371)" d="m0 0h1l1 14 7 1v1h-12l-1-5 1-6-2-1 3-1z" fill="#0022ED"/>
<path transform="translate(1358,551)" d="m0 0h1l-1 13-3 4-4-1 2-4v-10z" fill="#001BDC"/>
<path transform="translate(1147,564)" d="m0 0 1 2h2v2l-5 2-24-1 2-2 24-1z" fill="#001AD9"/>
<path transform="translate(1908,370)" d="m0 0h1l1 15 13 1v1l-7 1-1 3h-8v-3l1-2z" fill="#001ADA"/>
<path transform="translate(1601,496)" d="m0 0 1 4-2 8-3 6h-2l-1-5 6-12z" fill="#001AD9"/>
<path transform="translate(1912,515)" d="m0 0 4 4 7 11 5 4 2 7 2 4-5-5-12-18-3-5z" fill="#001AD9"/>
<path transform="translate(1586,366)" d="m0 0h4l1 5-3 6-3 1v-8l-2-1z" fill="#001BDC"/>
<path transform="translate(1404,424)" d="m0 0 3 1-2 6-4 7-5 2 2-5z" fill="#001AD9"/>
<path transform="translate(1712,385)" d="m0 0 10 1v3l3 1-3 1h-8l-2-1z" fill="#042AF6"/>
<path transform="translate(1722,385)" d="m0 0 14 1-2 1-1 3h-8l-3-1z" fill="#001AD6"/>
<path transform="translate(1950,562)" d="m0 0h1v5l-5 2h-31v-1l29-1 4-2z" fill="#001AD9"/>
<path transform="translate(1616,470)" d="m0 0 1 2-6 13h-2l2-10 2-4z" fill="#0A2FF6"/>
<path transform="translate(1985,375)" d="m0 0 1 4-3 10-7 1 6-9z" fill="#1034F6"/>
<path transform="translate(1612,471)" d="m0 0 1 2-4 12-4 5-3 6-1-2 10-22z" fill="#001AD9"/>
<path transform="translate(1792,376)" d="m0 0h1l1 11h-14v-1h10l1-9z" fill="#001BDC"/>
<path transform="translate(1801,497)" d="m0 0h1l-1 10-2 10h-1v-13z" fill="#001AD9"/>
<path transform="translate(1874,436)" d="m0 0v3l-4 6-3 3-4-1z" fill="#0027F6"/>
<path transform="translate(1706,526)" d="m0 0 1 2-7 15-1-3 3-10z" fill="#072DF6"/>
<path transform="translate(1724,478)" d="m0 0 1 4-3 9-3 1-2 4 1-5z" fill="#001AD9"/>
<path transform="translate(1595,514)" d="m0 0 1 3-6 13-2-1 2-8 2-1z" fill="#173AF6"/>
<path transform="translate(1668,374)" d="m0 0 3 4 1 15h-2l-2-13z" fill="#0F33F6"/>
<path transform="translate(1567,562)" d="m0 0v3l-1 3-4 2-6-1 1-2 7-2z" fill="#001AD9"/>
<path transform="translate(1698,543)" d="m0 0 1 3-4 8h-2l2-9z" fill="#0027F6"/>
<path transform="translate(1600,503)" d="m0 0 1 3-4 8h-2l1-7z" fill="#0027F6"/>
<path transform="translate(1493,383)" d="m0 0 2 1 1 4 7 2v1h-8l-3-2z" fill="#1236F6"/>
<path transform="translate(1347,550)" d="m0 0h12l-2 3h-4l-1 2-1-4z" fill="#171B43"/>
<path transform="translate(1953,545)" d="m0 0 4 1v8l-1-4-4-1v-3z" fill="#092EF6"/>
<path transform="translate(1661,364)" d="m0 0h6l1 1v5l-7-3z" fill="#0027F6"/>
</svg>
